<mxfile host="app.diagrams.net" modified="2024-01-29T07:56:54.173Z" agent="Mozilla/5.0 (Windows NT 10.0; Win64; x64) AppleWebKit/537.36 (KHTML, like Gecko) Chrome/121.0.0.0 Safari/537.36" etag="rLr6ZRaQhIqT22r-JVPc" version="23.0.2" type="device">
  <diagram id="C5RBs43oDa-KdzZeNtuy" name="Page-1">
    <mxGraphModel dx="794" dy="724" grid="1" gridSize="10" guides="1" tooltips="1" connect="1" arrows="1" fold="1" page="1" pageScale="1" pageWidth="827" pageHeight="1169" math="0" shadow="0">
      <root>
        <mxCell id="WIyWlLk6GJQsqaUBKTNV-0" />
        <mxCell id="WIyWlLk6GJQsqaUBKTNV-1" parent="WIyWlLk6GJQsqaUBKTNV-0" />
        <mxCell id="bxrmmZLox1vQIc4egrkT-0" value="시작" style="ellipse;whiteSpace=wrap;html=1;" vertex="1" parent="WIyWlLk6GJQsqaUBKTNV-1">
          <mxGeometry x="100" y="30" width="90" height="20" as="geometry" />
        </mxCell>
        <mxCell id="bxrmmZLox1vQIc4egrkT-1" value="" style="endArrow=classic;html=1;rounded=0;exitX=0.5;exitY=1;exitDx=0;exitDy=0;" edge="1" parent="WIyWlLk6GJQsqaUBKTNV-1" source="bxrmmZLox1vQIc4egrkT-0">
          <mxGeometry width="50" height="50" relative="1" as="geometry">
            <mxPoint x="380" y="400" as="sourcePoint" />
            <mxPoint x="145" y="120" as="targetPoint" />
          </mxGeometry>
        </mxCell>
        <mxCell id="bxrmmZLox1vQIc4egrkT-2" value="종료" style="ellipse;whiteSpace=wrap;html=1;" vertex="1" parent="WIyWlLk6GJQsqaUBKTNV-1">
          <mxGeometry x="98.75" y="500" width="90" height="20" as="geometry" />
        </mxCell>
        <mxCell id="bxrmmZLox1vQIc4egrkT-3" value="숫자를 기억할 변수 no를 준비" style="shape=hexagon;perimeter=hexagonPerimeter2;whiteSpace=wrap;html=1;fixedSize=1;" vertex="1" parent="WIyWlLk6GJQsqaUBKTNV-1">
          <mxGeometry x="60" y="120" width="180" height="30" as="geometry" />
        </mxCell>
        <mxCell id="bxrmmZLox1vQIc4egrkT-4" value="no에 정수를 입력받아서 기억" style="shape=parallelogram;perimeter=parallelogramPerimeter;whiteSpace=wrap;html=1;fixedSize=1;" vertex="1" parent="WIyWlLk6GJQsqaUBKTNV-1">
          <mxGeometry x="47.5" y="210" width="192.5" height="30" as="geometry" />
        </mxCell>
        <mxCell id="bxrmmZLox1vQIc4egrkT-5" value="" style="endArrow=classic;html=1;rounded=0;exitX=0.5;exitY=1;exitDx=0;exitDy=0;entryX=0.5;entryY=0;entryDx=0;entryDy=0;" edge="1" parent="WIyWlLk6GJQsqaUBKTNV-1" target="bxrmmZLox1vQIc4egrkT-4">
          <mxGeometry width="50" height="50" relative="1" as="geometry">
            <mxPoint x="145" y="150" as="sourcePoint" />
            <mxPoint x="145" y="220" as="targetPoint" />
          </mxGeometry>
        </mxCell>
        <mxCell id="bxrmmZLox1vQIc4egrkT-6" value="no를 2로 나눈 나머지가 0이니?" style="rhombus;whiteSpace=wrap;html=1;" vertex="1" parent="WIyWlLk6GJQsqaUBKTNV-1">
          <mxGeometry x="37.5" y="300" width="212.5" height="50" as="geometry" />
        </mxCell>
        <mxCell id="bxrmmZLox1vQIc4egrkT-7" value="" style="endArrow=classic;html=1;rounded=0;exitX=0.5;exitY=1;exitDx=0;exitDy=0;entryX=0.5;entryY=0;entryDx=0;entryDy=0;" edge="1" parent="WIyWlLk6GJQsqaUBKTNV-1">
          <mxGeometry width="50" height="50" relative="1" as="geometry">
            <mxPoint x="145.63" y="240" as="sourcePoint" />
            <mxPoint x="144.63" y="300" as="targetPoint" />
          </mxGeometry>
        </mxCell>
        <mxCell id="bxrmmZLox1vQIc4egrkT-8" value="&amp;nbsp;yes" style="text;html=1;strokeColor=none;fillColor=none;align=center;verticalAlign=middle;whiteSpace=wrap;rounded=0;" vertex="1" parent="WIyWlLk6GJQsqaUBKTNV-1">
          <mxGeometry x="90" y="360" width="60" height="30" as="geometry" />
        </mxCell>
        <mxCell id="bxrmmZLox1vQIc4egrkT-9" value="no" style="text;html=1;strokeColor=none;fillColor=none;align=center;verticalAlign=middle;whiteSpace=wrap;rounded=0;" vertex="1" parent="WIyWlLk6GJQsqaUBKTNV-1">
          <mxGeometry x="300" y="300" width="60" height="30" as="geometry" />
        </mxCell>
        <mxCell id="bxrmmZLox1vQIc4egrkT-10" value="" style="endArrow=classic;html=1;rounded=0;exitX=0.5;exitY=1;exitDx=0;exitDy=0;entryX=0.5;entryY=0;entryDx=0;entryDy=0;" edge="1" parent="WIyWlLk6GJQsqaUBKTNV-1">
          <mxGeometry width="50" height="50" relative="1" as="geometry">
            <mxPoint x="144.25" y="350" as="sourcePoint" />
            <mxPoint x="143.25" y="410" as="targetPoint" />
          </mxGeometry>
        </mxCell>
        <mxCell id="bxrmmZLox1vQIc4egrkT-11" value="짝수입니다. (출력)" style="shape=parallelogram;perimeter=parallelogramPerimeter;whiteSpace=wrap;html=1;fixedSize=1;" vertex="1" parent="WIyWlLk6GJQsqaUBKTNV-1">
          <mxGeometry x="73.75" y="410" width="142.5" height="30" as="geometry" />
        </mxCell>
        <mxCell id="bxrmmZLox1vQIc4egrkT-12" value="" style="endArrow=classic;html=1;rounded=0;entryX=0.5;entryY=0;entryDx=0;entryDy=0;exitX=0.5;exitY=1;exitDx=0;exitDy=0;" edge="1" parent="WIyWlLk6GJQsqaUBKTNV-1" source="bxrmmZLox1vQIc4egrkT-11">
          <mxGeometry width="50" height="50" relative="1" as="geometry">
            <mxPoint x="145" y="450" as="sourcePoint" />
            <mxPoint x="144.5" y="500" as="targetPoint" />
          </mxGeometry>
        </mxCell>
        <mxCell id="bxrmmZLox1vQIc4egrkT-13" value="홀수입니다. (출력)" style="shape=parallelogram;perimeter=parallelogramPerimeter;whiteSpace=wrap;html=1;fixedSize=1;" vertex="1" parent="WIyWlLk6GJQsqaUBKTNV-1">
          <mxGeometry x="310" y="410" width="142.5" height="30" as="geometry" />
        </mxCell>
        <mxCell id="bxrmmZLox1vQIc4egrkT-14" value="" style="endArrow=classic;html=1;rounded=0;exitX=1;exitY=0.5;exitDx=0;exitDy=0;entryX=0.589;entryY=-0.167;entryDx=0;entryDy=0;entryPerimeter=0;" edge="1" parent="WIyWlLk6GJQsqaUBKTNV-1" source="bxrmmZLox1vQIc4egrkT-6" target="bxrmmZLox1vQIc4egrkT-13">
          <mxGeometry width="50" height="50" relative="1" as="geometry">
            <mxPoint x="391" y="320" as="sourcePoint" />
            <mxPoint x="390" y="380" as="targetPoint" />
            <Array as="points">
              <mxPoint x="394" y="325" />
            </Array>
          </mxGeometry>
        </mxCell>
        <mxCell id="bxrmmZLox1vQIc4egrkT-15" value="" style="endArrow=classic;html=1;rounded=0;exitX=0.589;exitY=1.033;exitDx=0;exitDy=0;exitPerimeter=0;" edge="1" parent="WIyWlLk6GJQsqaUBKTNV-1" source="bxrmmZLox1vQIc4egrkT-13">
          <mxGeometry width="50" height="50" relative="1" as="geometry">
            <mxPoint x="280" y="540" as="sourcePoint" />
            <mxPoint x="140" y="470" as="targetPoint" />
            <Array as="points">
              <mxPoint x="394" y="470" />
            </Array>
          </mxGeometry>
        </mxCell>
        <mxCell id="bxrmmZLox1vQIc4egrkT-16" value="&lt;h1&gt;짝수 홀수 판별하기&lt;/h1&gt;&lt;div&gt;&lt;br&gt;&lt;/div&gt;&lt;div&gt;시작&lt;/div&gt;&lt;div&gt;int no;&lt;/div&gt;&lt;div&gt;no에 입력값 대입 (no=입력값)&lt;/div&gt;&lt;div&gt;no를 2로 나눈 나머지가 0이니 (if no%2 ==0)&lt;/div&gt;&lt;div&gt;&lt;br&gt;&lt;/div&gt;&lt;div&gt;맞으면&lt;/div&gt;&lt;div&gt;print &quot;짝수입니다&quot;&amp;nbsp;&lt;/div&gt;&lt;div&gt;틀리면,&lt;/div&gt;&lt;div&gt;print &quot;홀수입니다&quot;&lt;/div&gt;&lt;div&gt;&lt;br&gt;&lt;/div&gt;&lt;div&gt;&lt;br&gt;&lt;/div&gt;&lt;div&gt;종료&lt;/div&gt;" style="text;html=1;spacing=5;spacingTop=-20;whiteSpace=wrap;overflow=hidden;rounded=0;fillColor=#f5f5f5;fontColor=#333333;strokeColor=#666666;" vertex="1" parent="WIyWlLk6GJQsqaUBKTNV-1">
          <mxGeometry x="470" y="20" width="260" height="250" as="geometry" />
        </mxCell>
      </root>
    </mxGraphModel>
  </diagram>
</mxfile>
